<svg version="1.1" xmlns="http://www.w3.org/2000/svg" style="display: block;" viewBox="0 0 1796 1200" width="449" height="300" preserveAspectRatio="none">
<path transform="translate(0,0)" fill="rgb(247,132,0)" d="M 969.114 125.255 C 1009.89 120.993 1019.24 143.303 1038.14 172.289 C 1045.79 184.017 1055.22 197.408 1063.26 208.971 L 1133.36 307.865 C 1164.76 351.524 1198.53 393.561 1230.86 436.534 C 1241.61 450.819 1291.98 510.367 1292.47 523.333 C 1292.98 537.229 1263.93 533.927 1254.78 535.828 C 1244.16 538.036 1233.73 543.178 1226.3 551.213 C 1205.36 573.88 1218.91 596.306 1231.05 618.873 C 1237.62 630.997 1244.09 643.178 1250.45 655.416 C 1263.5 680.592 1261.13 681.746 1239.62 700.501 C 1227.68 710.908 1215.7 720.596 1204.37 731.707 L 1054.43 881.07 C 1021.53 913.834 988.052 944.352 954.246 975.9 C 925.554 1002.68 899.49 1032.35 868.691 1057.33 C 859.235 1065 851.215 1074.97 839.39 1079.98 C 832.45 1082.91 822.295 1084.77 814.852 1084.89 C 780.933 1085.44 746.74 1083.34 712.816 1082.93 C 634.793 1081.7 556.761 1081.08 478.727 1081.06 L 261.08 1080.5 C 236.345 1080.27 211.605 1081.41 186.995 1080.79 C 168.49 1079.81 149.56 1066.26 146.161 1047.69 C 141.282 1021.04 168.721 994.268 183.858 974.635 L 232.666 911.583 L 340.786 772.035 L 491.396 574.957 C 511.715 548.714 530.816 521.113 551.978 496.269 C 581.981 458.083 608.57 482.225 637.065 506.171 C 652.792 519.387 667.496 498.993 676.372 486.912 C 692.417 465.074 710.067 444.393 726.694 423.153 C 763.785 375.429 800.275 327.24 836.154 278.598 L 902.792 186.487 C 919.804 163.458 939.22 130.789 969.114 125.255 z"/>
<path transform="translate(0,0)" fill="rgb(25,161,146)" d="M 1261.98 593.153 C 1274.91 591.387 1289.08 595.118 1302 595.832 C 1323.65 597.029 1345.23 598.733 1366.17 604.727 C 1369.47 605.67 1375.35 611.944 1377.89 614.537 C 1378.69 620.472 1378.63 626.945 1378.73 632.969 C 1375.45 638.731 1374.07 640.261 1369.52 645.153 C 1367.21 645.831 1356.52 648.435 1357.97 651.653 C 1370.34 679.072 1394.7 757.273 1412.43 777.675 C 1413.69 776.582 1414.99 775.529 1416.32 774.517 C 1420.54 771.333 1427.63 769.321 1432.77 767.815 C 1515.15 743.671 1594.74 774.661 1644.49 842.277 C 1675.65 884.72 1688.77 937.748 1681.02 989.822 C 1664.34 1097.67 1558.09 1163.43 1453.21 1148.24 C 1342.46 1132.2 1275.37 1031.12 1292.69 922.192 C 1300.15 874.392 1326.21 831.484 1365.19 802.836 C 1368.59 799.154 1370.68 797.47 1374.62 794.317 C 1369.02 782.574 1358.64 766.073 1349.98 756.635 C 1336.46 762.942 1318.28 780.11 1307.49 790.531 C 1245.71 850.205 1216.94 920.371 1210.94 1005.91 C 1209.43 1027.42 1210.06 1052.9 1209.99 1074.93 C 1208.38 1075.54 1203.04 1077.46 1201.35 1077.5 C 1106.29 1080 1010.99 1081.57 915.898 1079.32 C 913.509 1079.27 907.954 1075.2 905.857 1073.74 C 912.533 1065.94 920.28 1060.68 928.109 1054.16 L 963.19 1024.56 C 971.494 1017.43 979.414 1009.01 987.669 1001.68 L 1059.57 938.668 C 1104.27 898.82 1148.45 858.391 1192.1 817.392 C 1227.58 784.128 1260.95 748.322 1301.57 720.994 C 1310.81 714.78 1325.61 707.383 1333.16 699.965 C 1329.1 691.912 1320.63 653.09 1318.73 642.807 C 1305.86 639.079 1286.11 636.088 1272.76 634.044 C 1250.57 630.648 1234.5 623.803 1249.53 599.366 C 1252.43 594.649 1256.81 594.298 1261.98 593.153 z M 1483.33 988.454 C 1472.07 986.009 1462.08 981.585 1455.45 971.454 C 1448.9 961.463 1446.01 949.031 1440.58 938.413 C 1434.07 922.963 1394.7 849.181 1393.44 837.389 C 1388.16 834.936 1381.76 844.391 1378.18 847.83 C 1334.11 890.234 1320.33 968.367 1350.04 1022.56 C 1353.29 1029.64 1356.89 1035.58 1361.48 1041.88 C 1405.28 1101.99 1484.2 1113.55 1548.98 1083.45 C 1584.63 1067.12 1612.14 1037.04 1625.23 1000.09 C 1637.61 966.128 1635.77 928.618 1620.15 896.028 C 1602.35 858.125 1568.89 831.107 1529.77 817.795 C 1501.46 808.159 1489.86 808.151 1460.51 809.417 C 1452.78 809.906 1440.47 810.405 1433.49 813.422 C 1432.66 814.485 1431.75 815.132 1432.28 816.092 C 1444.58 838.301 1467.06 897.756 1479.36 916.406 C 1484.28 917.831 1496.01 920.738 1500.1 923.209 C 1518.68 934.41 1521.04 962.185 1505.64 977.11 C 1498.66 983.873 1492.47 985.966 1483.33 988.454 z"/>
</svg>