<svg version="1.1" id="Layer_1" xmlns="http://www.w3.org/2000/svg" xmlns:xlink="http://www.w3.org/1999/xlink" x="0px" y="0px" viewBox="0 0 785.2 112.6" style="enable-background:new 0 0 785.2 112.6;" xml:space="preserve">
 <g>
  <path d="M205,6.9c-1.3-2.6-4.8-4.8-7.7-4.8h-6c-2.9,0-6.4,2.2-7.6,4.8l-47.4,99c-1.3,2.6,0.1,4.5,3.1,4.5h10.9c4.3,0,6.3-2,7.5-4.4
		c1.2-2.4,3.8-7.7,4.3-8.7c0.7-1.4,2.8-2.3,5.7-2.3l51,0c2.9,0,4.8,0.6,5.7,2.3c0.6,1.1,3.2,5.8,4.4,8.4c1.3,2.6,3.5,4.7,7.7,4.7
		h15.9c2.9,0,4.2-2.2,3.2-4.3C254.5,104,205,6.9,205,6.9z M175,79.7c-2.9,0-4.3-2.2-3.1-4.8l18.7-40c1.2-2.7,3.2-2.7,4.5,0l18.2,40
		c1.2,2.7-0.2,4.8-3.1,4.8L175,79.7L175,79.7z M571.1,7.7v98.2c0,2.7,2.4,4.6,5.3,4.6h13c2.9,0,5.3-1.9,5.3-4.8V7.5
		c0-2.9-1.9-5.3-4.8-5.3h-13.5C573.5,2.1,571.1,3.9,571.1,7.7z M354.1,69.2c-1.7-2.4-0.8-5.1,2-5.9c0,0,11.2-3.3,16.5-8.2
		c5.4-4.8,8-11.8,8-20.8c0-5.9-1-10.9-3.1-15c-2.1-4-5-7.4-8.9-9.9C365,6.9,360.4,5,355,3.9c-5.4-1.2-12.6-1.5-12.6-1.5
		c-2.9-0.1-7.7-0.2-10.7-0.2h-53.8c-2.9,0-5.3,2.4-5.3,5.3v98.2c0,2.9,2.4,4.8,5.3,4.8h12.7c2.9,0,5.3-1.9,5.3-4.8c0,0,0-39,0-39
		s0,0,0-0.1c0,0,24.1-0.1,24.1-0.1c2.9,0,6.7,2,8.4,4.4l25,35.3c2.3,3.1,4.5,4.3,7.5,4.3h16.6c2.9,0,3.4-2.8,2.4-4.2
		C379.1,104.8,354.1,69.2,354.1,69.2z M344,49.2c-3.3,0.8-7,0.9-7,0.9c-2.9,0.1-7.7,0.2-10.7,0.2h-24.9c-2.9,0-5.3-2.4-5.3-5.3V25.1
		c0-2.9,2.4-5.3,5.3-5.3h24.9c2.9,0,7.7,0.1,10.7,0.2c0,0,3.7,0.1,7,0.9c3.3,0.8,5.9,1.8,7.8,3.2c1.9,1.4,3.3,3,4.1,4.9
		c0.8,1.9,1.2,3.9,1.2,6.1c0,2.2-0.4,4.2-1.2,6.1c-0.8,1.9-2.2,3.5-4.1,4.8C349.9,47.4,347.3,48.5,344,49.2z M730.1,2.1
		c-2.9,0-5.3,1.9-5.3,4.8l0,62.8c0,2.9-1.7,3.6-3.7,1.5L658.3,5.9c-2-2.1-5-3.8-9-3.8h-11.8c-3.7,0-5.3,2-5.3,4v100.4
		c0,2,1.9,3.9,4.8,3.9h11.8c2.9,0,5-1.6,5-4.3c0-1.4,0.1-66.2,0.1-66.2c0-2.9,1.7-3.6,3.7-1.5l65.5,68.1c2.1,2.1,4.6,3.8,9.1,3.8
		h8.9c2.9,0,5.3-2.4,5.3-5.3V7.4c0-2.9-2.4-5.3-5.3-5.3L730.1,2.1L730.1,2.1L730.1,2.1z M473.8,63.3c-1.4,2.6-3.8,2.6-5.2,0
		L437.9,6.9c-1.3-2.6-4-4.8-7.7-4.8h-16.7c-2.9,0-5.3,2.4-5.3,5.3v98c0,2.9,1.9,4.9,5.3,4.9h10.4c2.9,0,5.1-1.8,5.1-4.7
		c0-1.4,0-71.3,0.1-71.3s38.4,71.3,38.4,71.3c1.4,2.6,4.8,2.6,6.2,0c0,0,38.6-71.1,38.7-71.1c0.1,0,0.1,69.1,0.1,71.1
		c0,2.8,2.3,4.7,5.2,4.7h11.9c2.9,0,5.3-1.5,5.3-5.3V7.5c0-2.9-2.4-5.3-5.3-5.3h-16c-4.1,0-6.5,2.1-8,4.6L473.8,63.3L473.8,63.3z
		 M0,56.2c0,52.9,54.1,55.6,64.9,55.6c35.9,0,51.1-9.7,51.7-10.1c2.2-1.3,5-3.8,5-8.6V56.5c0-3.4-2.7-6.1-6.1-6.1H70.4
		c-3.4,0-5.6,2.7-5.6,6.1v3.8c0,3.4,2.2,6.1,5.6,6.1h26.1c2.5,0,4.6,2.1,4.6,4.6c0,0,0,16,0,17c-5.2,2.1-28.6,9-47.5,4.5
		c-27.4-6.5-29.5-29.1-29.5-35.9c0-5.7,1.7-34.1,35.3-37c27.2-2.3,45.1,8.6,45.3,8.8c3.2,1.7,6.5,0.5,8.3-2.9c0,0,3.4-6.9,3.4-6.9
		c1.4-2.8,0.9-5.7-2.5-8.1C113.6,10.3,94.5,0,65,0C1.8,0,0,50.4,0,56.2z M772.9,87.9c6.8,0,12.3,5.5,12.3,12.3s-5.5,12.3-12.3,12.3
		s-12.4-5.5-12.4-12.3C760.5,93.4,766.1,87.9,772.9,87.9z M772.9,110.8c5.7,0,10-4.6,10-10.5s-4.3-10.5-10-10.5
		c-5.8,0-10,4.6-10,10.5S767.2,110.8,772.9,110.8z M768.2,93h5.5c3.3,0,5,1.3,5,4.1c0,2.3-1.5,4-3.7,4l4.1,6.4h-2.5l-4-6.4h-2v6.4
		h-2.4L768.2,93L768.2,93z M770.5,99.2h2.8c1.8,0,3-0.4,3-2.3c0-1.7-1.5-2.1-3-2.1h-2.8C770.5,94.8,770.5,99.2,770.5,99.2z">
  </path>
 </g>
</svg>