<svg viewBox="0 0 422.1 60.7" version="1.1" xmlns="http://www.w3.org/2000/svg" id="Logo">
  
  <defs>
    <style>
      .st0 {
        fill: #eb4632;
      }
    </style>
  </defs>
  <path d="M106.2,31c.3,1.7.3,3.5.2,5.3-.2,2.7-.9,5.3-1.9,7.7h-18.4c1.7-1.7,2.9-4,3.1-6.5.2-2.9-.8-5.3-2.9-6.5h20ZM72.8,39.2c.3-3.7,2.5-6.8,5.7-8.2h-20.1c-1.5,2.9-2.5,6.1-2.8,9.4-.1,1.2-.1,2.4,0,3.6h18.2c-.8-1.3-1.2-2.9-1-4.8ZM156.3,31l-4.8,9.8-.4-9.8h-21.6l-4.2,9.8-1-9.8h-16.1l2.2,13h54.7l7.3-13h-16.1ZM189,41.9h31.3c1.2-3.4,1.7-5.8,1.9-7.7,0-1.1,0-2.2,0-3.3h-16.7c.2.8.1,1.8,0,2.9h-14.7c.2-1.1.5-2,1-2.9h-16.7c-1.5,3-2.4,6.2-2.7,9.6-.1,1.2-.1,2.3,0,3.5h16.6c0-.7,0-1.4.2-2.1ZM344.5,31c2.2,1.3,3.4,3.7,3.1,6.7-.2,2.4-1.4,4.7-3.1,6.3h18.8l2.5-13h-21.4ZM331.2,39.2c.3-3.6,2.7-6.7,5.8-8.2h-20.5c-1.4,3-2.3,6.3-2.6,9.8,0,1.1-.1,2.2-.1,3.2h18.5c-.9-1.3-1.3-3-1.1-4.8ZM77.2,46.5h-21.3c1.2,6,5.2,10.9,12.1,13,0,0,0,0,0,0,2.5.8,5.4,1.2,8.6,1.2s6.3-.4,9.2-1.2c0,0,0,0,0,0,7.8-2.1,13.8-7,17.2-13h-26ZM335.8,46.5h-21.8c.8,6.4,4.3,11,9.3,13,0,0,0,0,0,0,1.8.7,3.9,1.1,6.1,1.1s4.5-.4,6.5-1.1c0,0,0,0,0,0,4-1.4,7.1-3.9,8.7-6.3l-1.2,6.3h0s0,0,0,0h17s0,0,0,0l2.5-13h-27.1ZM141.4,59.5h0s0,0,0,0h15.2s0,0,0,0l7.3-13h-23.7l1.3,13ZM113.1,59.5h0s0,0,0,0h15.2s0,0,0,0l6.2-13h-23.6l2.2,13ZM195.1,49.7c-3.4,0-5.2-1.3-6-3.3h-16.7c1.1,6.3,5.2,11,12,13,0,0,0,0,0,0,2.6.8,5.5,1.2,8.9,1.2s6.5-.4,9.3-1.2c0,0,0,0,0,0,7.9-2.1,13.6-7,16.2-13h-16.6c-1.4,2.1-4,3.3-7.2,3.3ZM105.7,28.5c-2.2-7.3-9-12.4-20.4-12.4s-20.4,5.1-25.3,12.4h45.8ZM150.6,17.3h-15.2l-4.8,11.3h20.4l-.5-11.3ZM180.1,17.3h-17.1l-5.4,11.3h16.3l6.3-11.3ZM123,17.3h-17.1l1.9,11.3h16.3l-1.1-11.3ZM176.3,28.5h17.4c1.5-1.2,3.4-1.8,5.6-1.8s3.9.6,4.9,1.8h17.4c-1.8-7.1-8.5-12.4-20.3-12.4s-20.3,5.1-25,12.4ZM368.5,17.3h-17l-1.2,6.3c-1.1-3.7-5.4-7.3-12.4-7.3s-15.7,4.7-20.1,12.3h48.5l2.2-11.3ZM5.5,31l-2.5,13h29.1c7.3,0,14.4-2.7,19.6-7.9,1.6-1.6,2.9-3.3,4.1-5.2H5.5ZM0,59.5H0s0,0,0,0h18s0,0,0,0l2.5-13H2.5L0,59.5ZM43,28.5h14.2c1.2-2.7,2-5.5,2.3-8.4.1-1.6.1-3.1,0-4.6H8.6l-2.5,13h36.9ZM40.7,0H11.6l-2.5,13h49.9c-1.9-7.6-8.3-13-18.3-13ZM278.3,39.2c.3-3.6,2.6-6.7,5.8-8.2h-21.3l-2.6,13h19.2c-.9-1.3-1.3-3-1.1-4.8ZM294.8,37.6c-.2,2.5-1.4,4.7-3.1,6.4h18.7c.9-2.5,1.6-5.1,1.8-8,.2-1.8.1-3.5,0-5.1h-20.4c2.2,1.3,3.4,3.7,3.1,6.6ZM259.8,46.5l-2.6,13h17.1l1.2-6.3c.7,2.4,2.8,4.9,6.3,6.3,1.7.7,3.7,1.1,6.1,1.1s4.5-.4,6.7-1.1c6.1-2,11.4-6.7,14.6-13h-49.5ZM296.4,16.2c-7.1,0-12.7,3.8-15.1,7.3l1.6-8.1h-17.1l-2.6,13h48.5c-1.7-7.7-7.5-12.3-15.3-12.3ZM286,0h-17.1l-2.6,13h17.1L286,0ZM262.8,17c-1.4-.4-2.7-.6-4.1-.6-6.6,0-11.9,3.6-14.8,7.6l1.3-6.7h-17.1l-2.2,11.3h34.6l2.3-11.5ZM222.9,44h17.1c2.1-9.9,7.4-12,14.5-13h-29.1l-2.5,13ZM219.8,59.5h17.1l2.5-13h-17.1l-2.5,13ZM402.7,16.4c-6.6,0-11.9,3.6-14.8,7.6l1.3-6.7h-17.1l-2.2,11.3h34.6l2.3-11.5c-1.4-.4-2.7-.6-4.1-.6ZM366.9,44h17.1c2.1-9.9,7.4-12,14.5-13h-29.1l-2.5,13ZM363.8,59.5h17.1l2.5-13h-17.1l-2.5,13ZM408.8,7.1c0-3.9,3.4-7.1,7.2-7.1s6.1,2.7,6.1,5.9-3.5,7.1-7.3,7.1-6-2.7-6-5.9ZM415,11.4c2.8,0,5.4-2.4,5.4-5.3s-1.9-4.4-4.5-4.4-5.4,2.4-5.4,5.3,1.9,4.4,4.5,4.4ZM412.3,9.8h2l.4-2.2h.5l.8,2.2h2.1l-.9-2.5c.9-.4,1.4-1,1.6-1.9.3-1.4-.7-2.2-2.5-2.2h-2.7l-1.3,6.6ZM415.1,6l.3-1.3h.7c.5,0,.8.3.7.7,0,.4-.5.7-1,.7h-.7Z" class="st0"></path>
</svg>